TITLE ""
FILE "Disc2Track60.mp3" MP3
  TRACK 01 AUDIO
    TITLE "Disc2Track60_01"
    INDEX 01 00:00:00
  TRACK 02 AUDIO
    TITLE "Disc2Track60_02"
    INDEX 01 00:01:18
  TRACK 03 AUDIO
    TITLE "Disc2Track60_03"
    INDEX 01 00:02:17
  TRACK 04 AUDIO
    TITLE "Disc2Track60_04"
    INDEX 01 00:03:44
  TRACK 05 AUDIO
    TITLE "Disc2Track60_05"
    INDEX 01 00:06:42
  TRACK 06 AUDIO
    TITLE "Disc2Track60_06"
    INDEX 01 00:07:01
  TRACK 07 AUDIO
    TITLE "Disc2Track60_07"
    INDEX 01 00:08:22
  TRACK 08 AUDIO
    TITLE "Disc2Track60_08"
    INDEX 01 00:09:74
  TRACK 09 AUDIO
    TITLE "Disc2Track60_09"
    INDEX 01 00:11:22
  TRACK 10 AUDIO
    TITLE "Disc2Track60_10"
    INDEX 01 00:14:50
  TRACK 11 AUDIO
    TITLE "Disc2Track60_11"
    INDEX 01 00:15:06
  TRACK 12 AUDIO
    TITLE "Disc2Track60_12"
    INDEX 01 00:16:37
  TRACK 13 AUDIO
    TITLE "Disc2Track60_13"
    INDEX 01 00:17:70
  TRACK 14 AUDIO
    TITLE "Disc2Track60_14"
    INDEX 01 00:19:25
  TRACK 15 AUDIO
    TITLE "Disc2Track60_15"
    INDEX 01 00:23:31
  TRACK 16 AUDIO
    TITLE "Disc2Track60_16"
    INDEX 01 00:23:62
  TRACK 17 AUDIO
    TITLE "Disc2Track60_17"
    INDEX 01 00:25:38
  TRACK 18 AUDIO
    TITLE "Disc2Track60_18"
    INDEX 01 00:26:45
  TRACK 19 AUDIO
    TITLE "Disc2Track60_19"
    INDEX 01 00:28:22
  TRACK 20 AUDIO
    TITLE "Disc2Track60_20"
    INDEX 01 00:28:58
  TRACK 21 AUDIO
    TITLE "Disc2Track60_21"
    INDEX 01 00:29:71
  TRACK 22 AUDIO
    TITLE "Disc2Track60_22"
    INDEX 01 00:32:18
  TRACK 23 AUDIO
    TITLE "Disc2Track60_23"
    INDEX 01 00:33:31
  TRACK 24 AUDIO
    TITLE "Disc2Track60_24"
    INDEX 01 00:33:70
  TRACK 25 AUDIO
    TITLE "Disc2Track60_25"
    INDEX 01 00:35:13
  TRACK 26 AUDIO
    TITLE "Disc2Track60_26"
    INDEX 01 00:40:08
  TRACK 27 AUDIO
    TITLE "Disc2Track60_27"
    INDEX 01 00:41:17
  TRACK 28 AUDIO
    TITLE "Disc2Track60_28"
    INDEX 01 00:44:17
  TRACK 29 AUDIO
    TITLE "Disc2Track60_29"
    INDEX 01 00:44:49
  TRACK 30 AUDIO
    TITLE "Disc2Track60_30"
    INDEX 01 00:46:08
  TRACK 31 AUDIO
    TITLE "Disc2Track60_31"
    INDEX 01 00:49:28
  TRACK 32 AUDIO
    TITLE "Disc2Track60_32"
    INDEX 01 00:50:63
  TRACK 33 AUDIO
    TITLE "Disc2Track60_33"
    INDEX 01 00:54:67
  TRACK 34 AUDIO
    TITLE "Disc2Track60_34"
    INDEX 01 00:55:25
  TRACK 35 AUDIO
    TITLE "Disc2Track60_35"
    INDEX 01 00:56:40
  TRACK 36 AUDIO
    TITLE "Disc2Track60_36"
    INDEX 01 00:57:49
  TRACK 37 AUDIO
    TITLE "Disc2Track60_37"
    INDEX 01 00:58:67
  TRACK 38 AUDIO
    TITLE "Disc2Track60_38"
    INDEX 01 01:03:32
  TRACK 39 AUDIO
    TITLE "Disc2Track60_39"
    INDEX 01 01:03:64
  TRACK 40 AUDIO
    TITLE "Disc2Track60_40"
    INDEX 01 01:05:25
  TRACK 41 AUDIO
    TITLE "Disc2Track60_41"
    INDEX 01 01:06:39
  TRACK 42 AUDIO
    TITLE "Disc2Track60_42"
    INDEX 01 01:07:71
  TRACK 43 AUDIO
    TITLE "Disc2Track60_43"
    INDEX 01 01:09:68
  TRACK 44 AUDIO
    TITLE "Disc2Track60_44"
    INDEX 01 01:10:31
  TRACK 45 AUDIO
    TITLE "Disc2Track60_45"
    INDEX 01 01:12:04
  TRACK 46 AUDIO
    TITLE "Disc2Track60_46"
    INDEX 01 01:13:62
  TRACK 47 AUDIO
    TITLE "Disc2Track60_47"
    INDEX 01 01:15:36
  TRACK 48 AUDIO
    TITLE "Disc2Track60_48"
    INDEX 01 01:18:16
